<svg width="23" height="32" viewBox="0 0 23 32" fill="none" xmlns="http://www.w3.org/2000/svg">
  <path
    d="M22.1543 18.2149C22.1543 20.3899 20.3908 22.1531 18.2158 22.1534H14.7686C12.0502 22.1538 9.84607 24.3578 9.8457 27.0762V28.0616C9.84568 30.2367 8.08236 32.0001 5.90723 32.0001H0V16.2462C0 14.071 1.76332 12.3077 3.93848 12.3077H22.1543V18.2149Z"
    fill="var(--primary-400)" />
  <path
    d="M22.1543 5.90723C22.1543 8.08223 20.3908 9.84547 18.2158 9.8457H14.7686C12.0502 9.84608 9.84607 12.0502 9.8457 14.7686V15.7539C9.84567 17.929 8.08236 19.6924 5.90723 19.6924H0V3.93848C0 1.76332 1.76332 0 3.93848 0H22.1543V5.90723Z"
    fill="var(--primary-300)" />
</svg>
